<?xml version="1.0" encoding="UTF-8"?><svg id="Layer_2" xmlns="http://www.w3.org/2000/svg" viewBox="0 0 188.31 60"><defs><style>.cls-1{fill:#1e160f;stroke-width:0px;}</style></defs><g id="Layer_7"><path class="cls-1" d="m96.57,53.39c0,.21,0,.4,0,.59,0,.1,0,.2.09.27.03.03.05.08.06.13.07.24.18.38.46.43.48.09.95.03,1.43.04.01,0,.02-.02.05-.05-.08-.09-.15-.19-.23-.28-.25-.27-.52-.52-.76-.79-.34-.37-.66-.74-.99-1.11-.01-.01-.02-.02-.03-.04-.54-.57-1.08-1.14-1.63-1.7-.31-.32-.64-.62-.96-.93-.2-.2-.4-.4-.6-.59-.18-.17-.38-.33-.6-.53v-4.11c.12-.61.05-1.23.08-1.85,0-.01.01-.03.03-.06.06,0,.13-.01.2-.02,2.18-.13,4.35-.06,6.53-.07,2.18-.01,4.36,0,6.54,0,.33,0,.65.04.98.07.12,0,.18.08.18.19,0,.09,0,.18,0,.27,0,.19-.04.4.07.58.02.03,0,.08,0,.12,0,1.54,0,3.08,0,4.62,0,.04,0,.08-.01.15-.5.04-.99.01-1.48.02-.49,0-.98,0-1.47,0h-1.5c-.04-.5-.08-.97-.12-1.45,0,0-.01-.02-.03-.02-.84-.06-1.68-.12-2.52-.08-.02,0-.04.02-.08.03.18.2.34.4.51.59.25.28.5.56.76.83.35.37.72.72,1.06,1.09.25.26.47.55.71.82.03.03.06.05.09.08.54.55,1.09,1.1,1.62,1.67.39.41.76.84,1.12,1.27.16.19.3.41.44.62.05.07.1.13.15.19.09.12.16.24.16.4,0,1.37,0,2.75,0,4.12,0,.24-.04.25-.29.29-.35.06-.7.03-1.04.13-.06.02-.13,0-.2,0-4.08,0-8.16,0-12.24,0-.18,0-.36-.05-.53-.09-.07-.02-.15-.08-.18-.15-.13-.25-.25-.52-.36-.78-.02-.04,0-.1,0-.15,0-1.5,0-3,0-4.5,0-.25.04-.29.29-.29,1.36,0,2.72,0,4.08,0,.05,0,.1,0,.19.02Z"/><path class="cls-1" d="m131.72,43.06v-.69c.08-.01.14-.03.2-.03,1.38,0,2.75,0,4.13,0,.63.13,1.27,0,1.9.08.93.12,1.85.04,2.77.06.35,0,.61.14.84.38.53.55,1,1.16,1.57,1.68.12.11.23.23.36.32.08.05.09.11.09.18.02.72.04,1.43.07,2.15,0,.11.04.22.06.33.01.06.01.13.01.2,0,1.9,0,3.81,0,5.71,0,.09-.04.17-.05.26,0,.04-.02.08-.02.12,0,.05,0,.1,0,.15.05.89-.1,1.78-.07,2.67,0,.08-.03.12-.09.18-.19.18-.34.39-.53.57-.3.28-.57.59-.86.87-.3.3-.57.62-.86.93-.22.22-.45.42-.77.48-.08.02-.16.04-.24.04-2.45,0-4.91,0-7.36,0-.46-.1-.92-.06-1.38-.08-.06,0-.14-.05-.19-.09-.33-.31-.64-.65-.92-1.02-.27-.37-.56-.72-.84-1.08-.02-.02-.06-.03-.08-.05-.18-.17-.28-.36-.28-.64.02-1.32,0-2.63.01-3.95,0-.26.07-.53.13-.79.05-.22-.03-.4-.11-.59-.05-.12-.12-.24-.17-.36-.07-.17-.08-.35-.08-.53,0-1.33,0-2.67,0-4,0-.15,0-.28.12-.41.12-.14.18-.33.29-.48.16-.23.34-.44.51-.67.19-.25.38-.51.58-.75.15-.18.3-.36.47-.51.24-.21.5-.4.8-.64Zm4.47,4.53c-.18.1-.35.15-.49.28-.11.11-.22.23-.34.32-.19.15-.34.33-.48.51-.17.22-.32.45-.52.65-.12.12-.22.26-.31.41-.05.08-.09.18-.09.27,0,.93,0,1.85,0,2.78,0,.1.06.22.12.31.17.22.35.42.53.64.2.24.4.49.6.73.13.16.27.31.41.46.12.12.23.21.43.21.3,0,.47-.2.65-.36.26-.23.48-.51.72-.76.24-.25.48-.51.72-.76.16-.16.33-.31.49-.47.16-.17.35-.33.45-.54.08-.16.03-.37.03-.56,0-.08,0-.17,0-.25,0-.16-.03-.33.06-.49.03-.05,0-.13,0-.19-.01-.11-.05-.22-.05-.34,0-.26-.02-.51,0-.77.02-.27-.08-.44-.29-.57-.1-.06-.19-.14-.27-.23-.24-.26-.48-.52-.72-.79-.27-.29-.52-.59-.8-.87-.22-.21-.49-.3-.83-.25v.6Z"/><path class="cls-1" d="m125.36,59.48h-4.42s-.03-.05-.04-.08c-.04-.68-.11-1.36-.09-2.04,0-.42,0-.85-.08-1.25-.1-.46,0-.92-.07-1.38-.07-.49-.05-.98-.07-1.49h-5.3c0,.11,0,.2,0,.3,0,1.79,0,3.58,0,5.37,0,.37-.05.75-.25,1.09h-4.42c0-.07-.02-.13-.02-.2,0-1.37,0-2.75,0-4.12,0-.17.06-.33.1-.5.01-.06.04-.11.04-.16.03-.91.06-1.83.07-2.74.01-1.19.03-2.39-.01-3.58-.02-.48,0-.98-.08-1.45-.07-.44-.05-.87-.06-1.3-.01-1.14,0-2.29,0-3.43,0-.07,0-.13,0-.18.02-.03.03-.03.03-.04,0,0,.01-.01.02-.01.06,0,.11-.02.17-.02,1.41,0,2.82,0,4.23,0,.02,0,.05.01.1.03,0,.1,0,.2,0,.31,0,.22-.02.45,0,.67.14,1.74.04,3.49.07,5.23,0,.04,0,.08,0,.11.02.02.02.03.03.03,0,0,.01.01.02.01.07,0,.13.02.2.02,1.65,0,3.3,0,4.95,0,.02,0,.05-.01.07-.02.11-.29.11-.58.11-.88,0-1.81,0-3.61,0-5.42,0-.09,0-.18,0-.26.2-.07,4.21-.07,4.46-.01.01.34.1.67.1,1.02-.01,2.15,0,4.31,0,6.46,0,.12.01.24-.06.36-.03.05-.02.13-.02.19,0,.3,0,.6,0,.89,0,.19-.04.4.07.58.01.02,0,.05,0,.07.02.37.06.74.07,1.1.01.36,0,.73,0,1.09,0,.13-.02.26.06.38.03.04.02.11.02.17,0,1.61,0,3.23,0,4.84,0,.06,0,.13-.01.22Z"/><path class="cls-1" d="m151.8,53.74v.3c0,1.32,0,2.65,0,3.97,0,.13.02.26-.06.38-.03.06-.02.15-.02.22,0,.2,0,.39,0,.61h-4.48c0-.11,0-.2,0-.3,0-1.47,0-2.93,0-4.4-.14-.72-.05-1.45-.07-2.17-.02-.73-.05-1.46,0-2.18.07-.78.04-1.55.06-2.32,0-.09,0-.18,0-.3h-.77c-.06-.21-.07-4.11-.02-4.47.19-.03.4-.04.59-.1.32-.1.64-.02.96-.07.93-.15,1.86-.05,2.8-.07.93-.02,1.86,0,2.79,0h2.81c.46,0,.93,0,1.39,0,.17,0,.34-.03.51.06.06.03.15.01.22.01.6,0,1.2.12,1.8.07.16-.01.22.14.29.23.39.53.75,1.07,1.07,1.64.17.31.29.64.45.95.07.14.11.31.11.47,0,1.41,0,2.82,0,4.22,0,.11-.01.19-.11.28-.23.21-.43.45-.63.68-.23.26-.44.53-.67.78-.34.36-.67.72-1.03,1.06-.14.13-.33.18-.54.22-.27.05-.55.01-.81.07-.66.14-1.32.04-1.98.07-.75.03-1.5.06-2.25.07-.75.01-1.49,0-2.24,0-.05,0-.1,0-.18.02Zm.25-6.34c-.03.26-.07.48-.09.71-.03.29.05.59-.08.88-.02.04,0,.11.02.15.03.01.04.03.06.03.63-.02,1.26.07,1.9-.06.33-.07.69,0,1.03-.07.18-.03.35-.09.47-.19.25-.22.47-.47.7-.71.08-.08.15-.17.21-.24-.03-.07-.04-.12-.07-.16-.1-.12-.17-.29-.36-.27-.6.04-1.2-.08-1.8-.08-.08,0-.17.01-.25-.02-.28-.12-.58-.09-.85-.04-.22.04-.44.04-.66.06-.07,0-.15,0-.23.01Z"/><path class="cls-1" d="m109.88,21h.7c.02-.1.03-.18.04-.28.07,0,.15-.02.22-.02,1.83,0,3.66,0,5.5,0,.31.12.65.08.97.12.32.05.62.16.94.18.06,0,.14.05.18.11.14.2.25.43.39.62.14.19.24.4.41.57.1.1.16.24.24.37.11.18.21.37.32.55.06.1.15.19.22.3.23.38.45.76.68,1.13.2.33.42.64.62.97.12.19.22.38.2.62,0,.1.04.21.05.31.01.06.02.13.02.2,0,2.71,0,5.42,0,8.12-.16.8-.04,1.61-.08,2.42,0,.02-.01.05-.02.07-.18.05-4.04.07-4.44.02-.03-.26-.01-.53-.01-.8,0-.28,0-.56,0-.84v-1.66c-.13,0-.26-.04-.35,0-.23.09-.46.05-.69.06-.13,0-.27,0-.4,0-.14,0-.28-.02-.41.06-.01,0-.03,0-.05,0-.33.03-.65.07-.98.07-.9,0-1.81,0-2.71,0h-.3c0,.37,0,.71,0,1.06,0,.34,0,.68,0,1.02v2.05c-.2.06-4.12.07-4.45.02,0-.03-.02-.07-.02-.11-.01-.38-.13-.76-.08-1.15-.14-.44-.04-.89-.07-1.33,0-.11-.04-.22-.06-.33-.01-.06-.02-.13-.02-.2,0-2.4,0-4.8,0-7.2,0-.27.16-.46.27-.68.09-.17.22-.33.32-.49.21-.36.41-.73.61-1.09.14-.25.3-.5.42-.77.22-.45.44-.9.63-1.36.23-.53.47-1.05.67-1.59.14-.38.34-.73.53-1.12Zm6.58,8.5c-.18-.3-.34-.58-.5-.85-.1-.17-.21-.33-.32-.49-.11-.17-.23-.35-.34-.53-.16-.26-.3-.54-.48-.8-.22-.32-.46-.63-.7-.95-.13.28-.29.55-.38.84-.12.41-.34.78-.49,1.17-.1.26-.24.5-.36.74-.02.05-.04.11-.06.16-.05.09-.08.2-.15.28-.11.14-.16.3-.19.47.04,0,.08.02.11.02.51,0,1.03,0,1.54,0,.04,0,.09,0,.12-.01.14-.09.29-.06.43-.06.26,0,.53,0,.79,0h.96Z"/><path class="cls-1" d="m137.28,29.39c.09.11.16.21.26.3.22.21.46.4.68.62.25.25.49.51.71.79.1.14.17.33.19.5.05.49.13.98.09,1.47.15.73.05,1.46.07,2.2.02.73,0,1.46,0,2.19v.26c-.11,0-.19.01-.27.01-1.32,0-2.64,0-3.95,0-.29,0-.32-.03-.32-.33,0-.17,0-.33,0-.5,0-.11-.04-.22-.06-.33-.01-.08-.02-.17-.01-.25.04-.45-.15-.8-.46-1.11-.59-.58-1.18-1.17-1.76-1.76-.15-.16-.29-.33-.43-.51-.03-.04-.03-.11-.04-.16,0-.08,0-.16-.01-.26h-2.6v5.55h-4.46c0-.08-.02-.14-.02-.2,0-.32,0-.65,0-.97,0-.2.04-.41-.07-.61-.03-.06,0-.15,0-.22,0-2.68,0-5.37,0-8.05,0-.11.04-.22.06-.33.01-.08.02-.16.02-.25,0-1.47,0-2.93,0-4.4,0-.21.05-.42.07-.63.01-.21-.02-.42.01-.62.02-.16.11-.31.17-.48.19-.02.39-.02.58-.08.25-.08.52-.01.76-.08.43-.11.85-.06,1.28-.06,3.63,0,7.26,0,10.89,0h.35v.27c0,1.89,0,3.78,0,5.66,0,.17-.02.33-.19.42-.09.25-.3.41-.46.6-.18.22-.36.45-.54.67-.11.14-.21.29-.31.44-.05.07-.12.14-.18.22Zm-7.93-1.55s.07.03.09.03c.49.06.96-.03,1.43-.17.13-.04.28-.09.36-.24.18-.35.38-.69.56-1.04.11-.22.23-.43.4-.61.05-.06.08-.15.13-.24-.1,0-.16-.01-.21-.01-.39.02-.78-.03-1.18.06-.34.08-.7.06-1.05.08-.22.02-.31.13-.38.33-.1.29-.05.58-.07.88,0,.08.01.17-.02.24-.1.23-.03.45-.05.67Z"/><path class="cls-1" d="m172.61,20.81v4.42c-.06.01-.11.02-.17.03-.06,0-.12,0-.17,0-.73.02-1.46,0-2.17.09-.54.07-1.07.02-1.6.07-.26.02-.51.09-.77.13-.12.02-.25,0-.37.02-.08.01-.17.03-.22.08-.42.39-.84.78-1.25,1.17-.03.03-.06.07-.11.13.06.01.1.03.13.03.27,0,.53.07.79.13.2.05.4.07.6.09,1.21.15,2.43.03,3.64.07.05,0,.1,0,.14.01.05.18.07,4.07.02,4.41,0,0,0,.01-.02.02,0,0-.01,0-.02,0-.02,0-.03,0-.05.01-.02,0-.03,0-.05,0-1.68,0-3.37,0-5.05,0,0,0-.02,0-.06.01.02.07.03.14.07.19.21.28.44.54.66.82.17.21.33.42.51.62.11.13.22.25.33.36.04.04.11.06.17.07.06.01.13,0,.2,0,1.74,0,3.48,0,5.22,0,.1,0,.2,0,.29,0,.06.19.08,4.07.02,4.46-.08,0-.17.02-.26.02-.5,0-1,0-1.49,0-.12,0-.24.04-.36.06-.08.01-.16.02-.25.02-2.55,0-5.09,0-7.64,0-.2,0-.31-.09-.43-.22-.07-.08-.14-.16-.2-.25-.22-.27-.44-.53-.65-.8-.13-.16-.27-.31-.39-.47-.18-.23-.36-.47-.54-.7-.13-.17-.25-.34-.38-.51-.22-.3-.44-.61-.67-.91-.14-.18-.27-.37-.42-.54-.06-.07-.12-.13-.12-.23-.02-.61-.06-1.22-.07-1.82,0-2.12,0-4.24,0-6.36,0-.34.07-.68.08-1.03,0-.23.19-.4.34-.56.15-.16.31-.3.46-.46.36-.4.71-.8,1.08-1.2.11-.12.26-.22.38-.33.23-.22.46-.45.69-.68.14-.14.3-.21.5-.23.28-.02.56-.08.84-.13.06,0,.13-.02.2-.02.29,0,.58,0,.87,0,.18,0,.35,0,.54-.06.17-.05.36,0,.54-.02,2.08-.15,4.17-.03,6.26-.07.08,0,.17,0,.25,0,.02,0,.05,0,.1.02Z"/><path class="cls-1" d="m147.12,32.2c-.02.19-.04.33.03.47.03.06.02.14.02.22,0,1.67,0,3.34,0,5.02,0,.07,0,.15-.01.24h-4.45c0-.14,0-.27-.01-.39-.04-.67-.03-1.35-.09-2.02-.06-.65-.04-1.3-.05-1.95-.02-.65.03-1.31,0-1.96-.14-2.4-.03-4.79-.06-7.19,0-.35.05-.7.07-1.05.01-.36-.04-.72.02-1.07.04-.24.05-.49.07-.73.01-.12.08-.24.21-.28.15-.04.3-.09.45-.12.25-.05.49-.09.74-.14.02,0,.03,0,.05,0,.34-.02.69-.05,1.03-.08.1,0,.21-.04.31-.06.06-.01.13-.02.2-.02,2.75-.14,5.5-.04,8.24-.07.21,0,.42.04.63.08.05,0,.1.08.14.13.15.18.28.38.44.55.42.46.85.9,1.28,1.35.32.34.66.66.99.99.09.09.14.19.14.32,0,1.44,0,2.88,0,4.32,0,.19-.06.36-.18.52-.08.1-.13.23-.2.34-.21.33-.41.66-.63.99-.16.24-.31.48-.48.71-.14.19-.38.22-.59.27-.29.08-.58.15-.88.21-.27.05-.55.07-.83.09-.41.03-.82.06-1.23.07-.41.01-.83-.01-1.24,0-.24.01-.48.08-.72.12-.02,0-.05.01-.07.02-.38.03-.77.07-1.15.08-.62.01-1.24,0-1.87,0-.09,0-.18,0-.29,0Zm-.09-4.71c1.47.03,2.9-.06,4.32-.47-.31-.34-.59-.65-.88-.96-.07-.07-.12-.16-.18-.23-.06-.08-.12-.16-.2-.21-.05-.04-.14-.04-.2-.03-.1,0-.21.04-.31.05-.34.03-.69.05-1.03.08,0,0-.02,0-.02,0-.3.09-.61.1-.91.16-.38.07-.55.11-.51.53.01.15.04.31-.02.44-.09.21-.04.4-.05.65Z"/><path class="cls-1" d="m105.44,25.82c-.12,0-.21,0-.3,0-.86,0-1.73-.01-2.59,0-.34,0-.69.04-1.03.08-.22.03-.44.02-.66.06-.55.12-1.1.04-1.65.07-.08,0-.13,0-.19.09-.08.12-.24.14-.34.27-.1.14-.26.24-.4.36-.25.21-.5.42-.75.63-.22.19-.44.37-.66.56-.04.04-.07.11-.07.17,0,.6-.04,1.2.01,1.79.02.3.04.6.06.91.01.23.12.43.31.56.29.2.58.39.87.59.05.03.09.08.13.12.33.35.65.7.98,1.05.14.15.3.22.51.21.15,0,.3,0,.45,0,.16,0,.33-.02.48.06.06.03.15.01.22.01,1.16,0,2.32,0,3.48,0,.1,0,.2,0,.28,0,.05.2.07,4.16.02,4.46-.07,0-.16.01-.24.01-2.69,0-5.37,0-8.06,0-.15,0-.3-.06-.46-.07-.18-.01-.37,0-.55,0-.15-.01-.29-.05-.43-.07-.02,0-.05-.01-.06-.03-.14-.17-.27-.35-.41-.52-.13-.14-.27-.27-.41-.4-.17-.15-.34-.3-.5-.45-.01-.01-.02-.02-.04-.03-.25-.17-.5-.33-.76-.5-.12-.08-.18-.17-.23-.32-.08-.25-.03-.51-.07-.76-.14-.81,0-1.64-.08-2.44-.05-.45-.04-.9-.07-1.35-.02-.24-.1-.47-.13-.72-.02-.18.01-.37-.01-.55-.14-.92-.05-1.85-.06-2.77-.02-.93,0-1.86,0-2.78,0-.21.05-.37.22-.49.16-.11.3-.25.46-.36.24-.17.45-.39.67-.58.22-.19.44-.37.65-.55.16-.13.31-.26.46-.41.15-.15.33-.24.54-.24.53,0,1.06,0,1.59,0,.13,0,.26-.04.38-.06.03,0,.07-.01.1-.01.49-.02.99-.05,1.48-.07.09,0,.17-.03.26-.05.07-.01.15-.03.22-.03,2.03,0,4.06,0,6.09,0,.27,0,.31.04.31.3,0,1.34,0,2.68,0,4.03,0,.06,0,.13-.02.23Z"/><path class="cls-1" d="m183.43,38.56h-4.44c0-.07-.02-.13-.02-.19,0-2.59,0-5.18,0-7.78.13-.51.01-1.04.09-1.55.09-.59.04-1.18.06-1.78.02-.6,0-1.19,0-1.79,0-.04,0-.08,0-.13-.17-.08-.35-.13-.54-.12-.25.01-.5,0-.75,0-.16,0-.33.02-.48-.06-.06-.03-.15-.01-.22-.01-1.14,0-2.27,0-3.41,0-.1,0-.2,0-.33,0,0-1.5,0-2.96,0-4.42.2-.1.39-.12.59-.12,1.49,0,2.99-.05,4.48.02,1.13.05,2.26.03,3.39.05.46.13.94.01,1.4.09.44.08.87.03,1.31.06.15,0,.31-.02.46.06.06.03.15.01.22.01.92,0,1.84,0,2.76,0,.09,0,.18,0,.26,0,.06.19.08,3.99.03,4.43-.12.11-.26.12-.41.12-1.26,0-2.52,0-3.78,0-.1,0-.2,0-.3,0-.02.05-.04.09-.04.13-.03.89-.06,1.78-.07,2.67-.01.83,0,1.66,0,2.48,0,.12-.04.24-.06.36,0,.06-.01.11-.01.17,0,.17,0,.33,0,.5-.02.99-.05,1.98-.07,2.97-.15.6-.06,1.21-.07,1.82-.01.6,0,1.21,0,1.81,0,.06,0,.11-.02.2Z"/><path class="cls-1" d="m109.41.37h4.44c.1.28.11.56.11.84,0,1.72,0,3.44,0,5.17,0,.09,0,.18,0,.26.2.07,5.46.08,5.75.01V.75h4.45s.02.07.03.1c.11.95.06,1.89.08,2.84,0,.09.03.17.05.26.01.07.03.15.03.22,0,2.75,0,5.5,0,8.25,0,.09-.03.17-.05.26,0,.04-.02.08-.02.12.04.63-.06,1.25-.07,1.87-.01.86,0,1.72,0,2.58v.25s-.03.03-.03.04c0,0-.01.01-.02.01-.07,0-.15.02-.22.02-1.37,0-2.74,0-4.1,0-.02,0-.05-.02-.08-.03-.03-.3-.09-.59-.09-.89,0-1.69,0-3.38,0-5.07v-.32c-.09,0-.16-.02-.23-.02-1.42,0-2.84,0-4.25,0-.38.12-.77.06-1.18.09,0,.1-.01.18-.01.27,0,.86.05,1.73-.01,2.58-.09,1.14-.03,2.28-.06,3.42,0,.03-.01.06-.02.09-.19.05-4.15.06-4.44.01,0-.07-.02-.14-.02-.21,0-2.43,0-4.85,0-7.28.14-.8.05-1.61.07-2.42.01-.8.06-1.61-.01-2.41-.07-.78-.04-1.57-.05-2.35-.01-.79,0-1.57,0-2.36v-.3Z"/><path class="cls-1" d="m140.88,5.02c-.1,0-.19,0-.28,0-.91,0-1.82,0-2.74,0-.12,0-.24.04-.36.06-.07.01-.15.02-.22.02-.43,0-.86,0-1.29,0-.28,0-.52.1-.71.29-.43.44-.85.89-1.27,1.34,0,0,0,.02-.02.06.07,0,.14.02.21.02.61,0,1.21,0,1.82,0,.13,0,.26.04.38.06.07,0,.13.01.2.01.4,0,.8,0,1.19,0,.08,0,.16,0,.26,0v4.53c-.09,0-.17.02-.25.02-1.32,0-2.64,0-3.96,0-.24,0-.47-.05-.71-.07-.05,0-.11,0-.18.01.21.21.41.41.61.6.21.19.43.38.64.56.14.12.29.23.41.36.11.11.23.11.36.11.78,0,1.56,0,2.34,0,.7,0,1.41,0,2.11,0,.15,0,.28.02.41.12v4.39c-.06.01-.11.03-.16.03-1.42,0-2.84,0-4.25,0-.8-.15-1.6-.05-2.4-.07-.8-.02-1.59-.02-2.39,0-.25,0-.43-.08-.6-.24-.29-.27-.58-.53-.87-.79-.28-.26-.56-.51-.84-.77-.02-.02-.05-.05-.08-.06-.27-.1-.29-.35-.33-.58-.04-.27-.09-.54-.14-.81,0-.02,0-.03-.01-.05-.03-.33-.07-.65-.08-.98-.01-.79.06-1.6-.02-2.38-.09-.95-.03-1.9-.05-2.84-.02-.95,0-1.9,0-2.86,0-.32.08-.6.27-.84.14-.17.29-.34.43-.51.17-.22.34-.44.52-.65.14-.16.28-.32.42-.48.15-.17.3-.35.45-.51.1-.11.22-.21.32-.32.21-.22.44-.43.61-.68.16-.23.39-.33.6-.48.04-.03.13-.02.19-.02.44,0,.88,0,1.32,0,.12,0,.24-.04.36-.06.07,0,.13-.01.2-.01,2.45,0,4.89,0,7.34,0,.07,0,.15,0,.21.01.05.19.07,4.11.01,4.46Z"/><path class="cls-1" d="m102.17,18.1h-4.46c0-.08-.02-.15-.02-.23,0-3.02,0-6.04,0-9.07,0-.09.04-.17.05-.26.01-.08.02-.16.02-.24,0-.94,0-1.87,0-2.81,0-.23.05-.45.07-.68,0-.08,0-.16-.01-.27-.23,0-.45,0-.66,0-.23,0-.46-.05-.68.07-.04.02-.1,0-.15,0-1.36,0-2.72,0-4.08,0-.07,0-.13,0-.19-.01-.06-.18-.08-3.88-.03-4.43C92.23.08,92.44,0,92.68,0c1.92,0,3.85,0,5.77,0,1.3.15,2.61.05,3.92.07,1.3.02,2.6,0,3.9,0,.23,0,.31.08.31.3,0,1.34,0,2.68,0,4.02,0,.06-.01.13-.02.22h-4.15c0,.12-.01.21-.01.3,0,.98,0,1.95,0,2.93,0,.1-.04.21-.05.31,0,.04-.02.08-.02.12-.02.86-.06,1.73-.07,2.59-.01.65,0,1.29,0,1.94,0,.12-.04.24-.06.36-.01.08-.01.16-.01.25,0,1.46,0,2.91,0,4.37v.32Z"/><path class="cls-1" d="m9.16,60H.22c-.1-.14-.08-.29-.1-.44-.1-.66-.04-1.33-.05-1.99-.01-.67.05-1.33-.02-2-.06-.6-.03-1.19-.04-1.78-.01-.6,0-1.2,0-1.79s0-1.2,0-1.79c0-3.94,0-7.89,0-11.83,0-.1-.02-.2.05-.29.02-.02,0-.07,0-.1.02-.66.04-1.31.06-1.97.09-.25.02-.5.07-.75.04-.21,0-.42.06-.62.09-.25,0-.5.1-.74.04-.11,0-.23.01-.35,0-.08.03-.15.05-.23.01-.07,0-.15.01-.22.02-.25,0-.51.07-.75.04-.17.01-.34.06-.5.06-.22,0-.45.06-.67.05-.19.01-.38.06-.56.05-.22,0-.44.06-.65.06-.23,0-.45.06-.67.05-.23,0-.47.06-.7.04-.2.01-.39.06-.58.04-.18,0-.37.06-.55.05-.17,0-.35.06-.51.08-.21-.02-.43.1-.62,0,0,0-.01,0-.02.02-.18.04-.35.06-.53.01-.14-.03-.29.06-.43,0,0,0-.01,0-.02.02-.22.03-.43.06-.65.01-.11.04-.22.06-.33.01-.1-.02-.21.05-.31.02-.03,0-.08,0-.12,0-.12-.03-.24.06-.34,0,0,0-.02,0-.03.02-.19,0-.4.07-.58.08-.2,0-.42.1-.61,0,0,0-.01,0-.02.02-.18.01-.36.07-.53.08-.21,0-.42.1-.63.06-.13.04-.28.07-.43.03-.17.07-.35.11-.52.04-.19.08-.38.13-.57.05-.18.12-.36.19-.54.11-.27.24-.54.32-.81.06-.19.16-.37.21-.56.05-.19.18-.37.26-.55.17-.39.33-.78.5-1.17.09-.21.21-.42.3-.63.1-.24.29-.44.35-.7.01-.06.07-.1.11-.16.02-.02.05-.05.05-.07-.02-.1.07-.16.11-.24.13-.22.28-.43.39-.66.08-.16.21-.29.32-.44.01-.02.04-.03.05-.05.15-.36.43-.64.68-.94.09-.11.17-.23.27-.35.1-.12.19-.26.35-.35.1-.06.16-.17.24-.26.01-.01,0-.04.02-.05.14-.11.28-.22.42-.33.12-.1.28-.15.37-.29.06-.09.21-.14.32-.21.12-.09.28-.13.37-.27.05-.08.18-.13.27-.19.12-.08.24-.15.36-.23.07-.04.08-.12.17-.16.13-.06.23-.16.35-.24.14-.1.27-.2.4-.3.02-.01.05-.03.05-.05.07-.16.26-.19.38-.3.02-.02.06-.02.08-.05.17-.24.47-.34.71-.5.12-.08.28-.12.43-.19.42-.18.81-.41,1.2-.63.17-.1.35-.18.52-.27.18-.1.37-.19.5-.35.03-.04.11-.06.16-.09.32-.19.64-.39.96-.58.35-.22.7-.43,1.05-.65.12-.07.25-.14.37-.22,0,0,0,0,.02-.01.41-.1.77-.33,1.2-.38.01,0,.03,0,.04,0,.37-.18.79-.22,1.17-.34.12-.04.24-.08.36-.11.26-.07.52-.13.77-.2.1-.03.19-.07.28-.11.28-.12.57-.23.83-.39.14-.09.27-.19.45-.22.05,0,.09-.06.14-.08.16-.07.33-.13.48-.21.19-.1.39-.17.6-.23.31-.09.61-.19.92-.27.39-.11.78-.21,1.18-.3.33-.08.67-.16.99-.25.28-.08.58-.14.87-.22.18-.05.36-.11.55-.16.26-.07.52-.13.77-.19.14-.04.28-.09.42-.12.2-.05.41-.09.61-.13.08-.02.16-.03.24-.05.24-.05.48-.1.73-.15.17-.03.34-.03.52-.06.2-.03.39-.06.58-.09,0,0,.01,0,.02,0,.22-.02.44-.03.65-.06.22-.02.44-.06.66-.09.02,0,.04,0,.06-.01.2-.02.41-.03.61-.05.17-.02.34-.06.51-.09.14-.02.28-.05.42-.06.33-.01.64-.1.96-.15.21-.04.44-.03.65-.06.46-.06.94,0,1.4-.06.34-.04.69,0,1.02-.05.33-.05.67,0,.99-.05.28-.04.56,0,.83-.05.61-.09,1.22-.03,1.83-.04.61-.01,1.21,0,1.82,0,3.17,0,6.35,0,9.52,0,.27,0,.54.01.81.06.16.03.33,0,.48.05.24.07.5,0,.72.09.01,0,.03,0,.04,0,.22.02.45.03.67.05.19.02.38.06.56.09.03,0,.06,0,.1,0,.2,0,.39.05.58.09.22.04.45.08.68.12.07.01.14.03.2.05.13.05.3.02.41.14.29.04.54.18.81.25.31.08.59.21.9.28.16.14.38.11.57.19.18.07.39.08.56.16.25.12.52.14.77.24.24.1.5.17.75.26.04.01.07.03.1.05.06.03.11.07.17.08.15.03.27.11.39.17.35.18.71.34,1.03.55.25.17.51.32.77.47.13.08.27.16.4.24.16.1.33.19.49.29.05.03.09.09.14.13.21.18.51.23.73.39.19.14.45.22.61.38.17.17.39.25.57.4.14.11.3.19.45.29.04.03.08.07.12.1.07.06.14.11.22.17.03.02.07.03.09.06.1.17.33.22.43.39.02.04.09.06.13.09.21.16.41.33.63.48.12.08.22.18.34.26.28.18.52.41.82.57.11.06.21.14.3.23.09.1.23.16.34.24.01,0,.04,0,.05.02.13.12.26.24.38.36,0,0,.01.02.02.03.15.12.31.24.46.37.1.09.18.19.27.28.03.03.04.08.08.09.17.06.22.2.32.3.18.19.32.4.48.6.13.17.31.33.39.51.1.23.32.4.39.65.02.08.1.14.15.21.14.2.22.42.4.6.09.09.1.22.19.32.19.22.36.46.54.69.01.01.02.03.04.04.19.07.23.25.37.36.04.03.06.09.11.12.14.08.21.2.31.31.09.09.16.2.28.27.07.04.11.12.16.18.15.18.3.36.45.54.03.04.04.11.07.15.06.1.15.19.19.29.07.15.15.3.22.45.07.15.13.32.23.46.12.17.14.37.21.55.08.2.18.41.22.61.04.23.19.43.2.67,0,.13.08.25.12.38.04.13.07.27.11.4.01.05.04.09.06.14.06.16.14.32.16.49.03.27.18.51.2.77,0,.14.09.27.14.41.05.17.09.34.14.51.05.17.1.34.16.51.03.09.07.17.07.26,0,.18.11.33.15.49,0,.03.03.05.03.08.01.23.08.45.16.66.05.12.05.25.08.37.03.15.07.29.11.44.02.09.04.17.06.26.02.13.04.25.07.38.03.12.07.25.1.37,0,.03.02.05.02.08,0,.19.05.37.11.55.04.12.04.24.07.36.03.14.07.28.1.42.02.1.06.2.08.31.02.12.03.24.06.36.03.14.08.28.11.42.03.12.04.25.07.38.03.12.07.25.1.37.03.1.07.21.07.31,0,.2.06.39.11.59.04.15.04.31.07.46.03.15.08.29.11.44.03.14.04.27.07.41.03.18.07.36.1.54.03.14.04.29.08.43.05.18.02.38.11.55.01.02,0,.06,0,.08.02.19.01.38.07.56.05.15.02.3.06.45.04.16.02.31.05.46.06.28.06.58.12.86.05.21,0,.43.06.63.06.26,0,.53.06.79.06.29.04.58.04.87,0,5.21,0,10.42,0,15.64,0,.24,0,.49-.05.72-.03.16-.01.31-.05.46-.12.5,0,1-.07,1.49-.03.23,0,.48-.1.71,0,0,0,.02,0,.03-.02.21-.02.41-.06.62-.12.6-.03,1.21-.06,1.82,0,.19,0,.37,0,.56,0,.03,0,.07-.02.12h-.21c-2.84,0-5.68,0-8.53,0-.22,0-.27-.03-.33-.21,0-.02,0-.04,0-.05-.15-.17-.11-.36-.11-.55,0-2.36.15-7.31.22-7.32,0-.05.01-.1.01-.15,0-.36,0-.72,0-1.08,0-.28.01-.57.06-.85.05-.3.07-.6.12-.89.09-.47,0-.93.06-1.39.03-.22.01-.45.06-.67.05-.2.01-.39.05-.58.11-.54.02-1.08.05-1.62-.08-.26-.02-.53-.07-.78-.03-.17-.02-.35-.06-.51-.04-.15,0-.31-.06-.45-.09-.2.01-.42-.1-.61-.02-.04,0-.09,0-.13,0-.11.03-.21-.06-.31,0,0,0-.02,0-.03-.02-.19-.03-.38-.06-.57-.03-.21-.07-.41-.11-.62,0,0,0-.01,0-.02-.02-.18-.04-.35-.06-.53-.02-.13-.06-.26-.09-.39,0-.03-.02-.05-.02-.08,0-.2-.07-.38-.11-.57-.03-.13-.03-.27-.07-.41-.04-.18-.08-.36-.11-.54-.02-.13-.04-.25-.07-.38-.03-.15-.07-.29-.11-.44,0-.02,0-.03,0-.05,0-.2-.05-.38-.11-.57-.04-.12-.04-.24-.06-.36-.02-.1-.03-.2-.06-.29-.09-.27-.12-.54-.17-.81-.04-.21-.12-.42-.17-.63-.05-.22-.08-.45-.12-.67-.03-.12-.08-.24-.1-.37-.03-.13-.04-.26-.07-.39-.03-.14-.05-.28-.08-.42-.03-.14-.06-.27-.1-.4-.02-.07-.03-.14-.06-.21-.09-.26-.09-.54-.22-.79,0-.02-.02-.03-.01-.05.02-.2-.1-.38-.16-.56-.03-.09-.04-.2-.07-.29-.1-.31-.15-.64-.28-.94-.04-.09-.04-.18-.07-.28-.02-.08-.04-.15-.06-.22-.06-.2-.11-.41-.17-.61-.08-.26-.15-.51-.23-.77-.05-.15-.09-.31-.13-.47-.06-.24-.16-.47-.25-.71-.04-.11-.06-.22-.1-.34-.06-.16-.12-.33-.18-.49-.05-.15-.11-.29-.17-.44-.05-.12-.09-.24-.14-.36-.07-.16-.2-.31-.23-.49,0-.04-.07-.08-.1-.12-.18-.34-.42-.65-.67-.95-.14-.17-.27-.35-.46-.48-.11-.08-.19-.2-.28-.3-.02-.02-.03-.06-.05-.07-.26-.15-.37-.39-.56-.58-.12-.11-.22-.22-.33-.34-.06-.07-.1-.15-.15-.23-.09-.15-.21-.29-.32-.44-.05-.07-.09-.15-.13-.22-.03-.05-.04-.11-.08-.15-.11-.12-.19-.26-.27-.4-.16-.28-.32-.57-.54-.82-.01-.01-.03-.03-.03-.04-.04-.24-.27-.38-.4-.58-.03-.05-.11-.08-.15-.12-.13-.15-.26-.3-.39-.45-.08-.09-.2-.13-.27-.23-.08-.11-.16-.22-.3-.27-.09-.19-.35-.24-.45-.42-.04-.07-.14-.11-.22-.16-.26-.18-.48-.41-.79-.54-.01,0-.02-.01-.03-.02-.19-.25-.51-.36-.76-.55-.05-.04-.09-.08-.13-.11-.05-.04-.1-.08-.15-.11-.06-.04-.13-.08-.18-.13-.11-.12-.24-.22-.4-.3-.03-.02-.05-.05-.07-.08-.02-.02-.03-.05-.05-.07-.15-.12-.32-.24-.46-.36-.09-.08-.21-.14-.29-.24-.09-.1-.24-.17-.36-.25-.05-.03-.12-.06-.15-.1-.05-.09-.14-.13-.22-.18-.42-.26-.85-.5-1.27-.76-.25-.15-.51-.3-.76-.46-.34-.2-.67-.41-1.01-.62-.25-.15-.5-.3-.74-.45-.15-.09-.29-.18-.44-.27-.05-.03-.11-.05-.17-.07-.1-.04-.2-.08-.29-.13-.19-.09-.36-.19-.56-.26-.23-.09-.48-.16-.72-.24-.32-.1-.64-.19-.96-.28-.22-.07-.44-.15-.67-.22-.22-.07-.42-.17-.65-.2-.11-.01-.2-.08-.31-.12-.34-.12-.68-.24-1.03-.34-.35-.1-.7-.2-1.07-.25-.23-.03-.45-.09-.68-.1-.19-.01-.37-.07-.56-.09-.21-.03-.42-.04-.63-.06-.1,0-.19-.03-.28-.04-.13,0-.26,0-.39,0-.11,0-.21.03-.32.04-.13,0-.26,0-.39,0-.17,0-.35-.03-.52.05-.02,0-.04,0-.06,0-.24.02-.48.03-.71.05-.14.02-.27.06-.41.08-.1.02-.2.04-.3.05-.16.02-.32.04-.48.06-.21.03-.43.06-.64.09-.03,0-.05,0-.08,0-.2.02-.41.03-.61.06-.19.02-.38.06-.56.09-.02,0-.04,0-.06,0-.24.02-.48.03-.71.05-.19.02-.38.06-.56.09-.13.02-.26.05-.4.06-.27.02-.53.08-.79.14-.29.07-.59.11-.88.17-.22.05-.43.11-.64.17-.31.09-.61.2-.92.27-.3.06-.57.17-.86.25-.35.09-.69.21-1.05.27-.29.05-.57.14-.85.2-.3.06-.58.17-.87.26-.27.08-.54.14-.8.23-.22.07-.43.18-.64.27-.08.04-.17.07-.25.11-.15.08-.31.16-.46.25-.13.07-.24.16-.4.19-.04,0-.08.02-.1.04-.21.16-.49.2-.73.29-.13.05-.26.09-.4.13-.24.06-.49.12-.74.18-.02,0-.04,0-.06,0-.31.16-.66.19-.99.29-.3.1-.6.2-.9.3-.2.06-.36.18-.54.25-.25.1-.47.23-.69.36-.13.08-.24.16-.35.25-.14.12-.32.21-.48.31-.25.16-.5.31-.75.46-.13.08-.26.16-.4.24-.24.14-.48.28-.72.42-.24.14-.48.3-.74.43-.22.12-.47.2-.7.31-.16.08-.32.17-.47.26-.13.08-.26.16-.39.24-.01,0-.02.01-.03.02-.11.17-.35.24-.47.38-.13.15-.35.21-.44.39-.04.08-.16.12-.25.18-.1.06-.21.11-.3.18-.08.06-.14.13-.24.19-.16.09-.3.19-.45.29-.01,0-.02.01-.03.02-.14.2-.38.29-.59.42-.02.01-.05.02-.06.04-.09.19-.31.24-.46.37-.06.05-.11.12-.17.18-.24.22-.47.45-.66.71-.21.3-.46.58-.69.86-.08.1-.16.22-.25.31-.06.06-.08.13-.1.21-.03.09-.11.16-.17.24-.04.06-.08.13-.11.19-.02.03-.04.07-.06.1-.06.11-.2.19-.19.34,0,.04-.07.08-.1.12-.12.19-.23.38-.31.59-.05.13-.14.24-.2.36-.05.1-.09.19-.14.29-.1.23-.21.46-.31.7-.07.16-.14.32-.22.48-.05.12-.1.24-.15.36-.1.23-.21.46-.31.7-.05.11-.09.23-.14.34-.12.31-.27.61-.34.94-.02.09-.08.16-.11.25-.06.16-.12.33-.17.49-.03.08-.04.16-.05.24-.03.14-.05.27-.08.41-.03.13-.06.26-.09.39,0,.02-.02.03-.02.05-.02.16-.04.32-.06.48,0,.09.02.18-.05.26-.01.01,0,.03,0,.05-.02.18-.03.35-.06.53-.03.2-.07.4-.11.6,0,.04,0,.08,0,.12-.01.07-.03.14-.05.21,0,.02-.01.03-.01.05-.02.22-.03.43-.06.65-.01.11-.04.22-.06.33-.01.1.02.21-.05.31-.02.04,0,.09,0,.13,0,.11.03.23-.06.33,0,0,0,.02,0,.03-.02.22-.03.43-.06.65-.01.13-.04.25-.06.38-.01.12.03.25-.05.36-.02.03,0,.08,0,.12,0,.09.02.19-.05.28-.02.02-.01.07-.01.1,0,.32-.04.63-.11.94-.01.04,0,.09,0,.14-.02.31,0,.63-.07.94-.05.23,0,.45-.06.67-.05.22,0,.44-.06.65-.05.21-.01.43-.06.63-.05.21,0,.43-.06.63-.05.2-.01.4-.06.6-.05.2-.01.4-.06.58-.04.17-.02.34-.06.5-.05.18,0,.37-.06.55-.06.21-.01.43-.06.63-.05.19,0,.38-.05.57-.06.25,0,.51-.06.75-.06.26-.03.53-.05.79,0,.08.01.17-.05.24-.02.02-.01.05-.01.08-.02.68-.04,1.36-.05,2.04,0,.55-.05,1.1,0,1.64.07.63.03,1.26.04,1.89.01.63,0,1.26,0,1.9,0,.13.05.25.07.38.01.07.04.14.04.21,0,2.44,0,4.88,0,7.33v.19Z"/><path class="cls-1" d="m22.24,60h-8.88c-.15-.16-.17-.36-.22-.56-.09-.31-.02-.63-.05-.94,0-.07-.03-.14-.04-.21,0-.04-.02-.08-.02-.13,0-.1,0-.21,0-.31,0-.3-.1-.59-.06-.88-.11-.22-.02-.46-.07-.68-.06-.26,0-.52-.06-.77-.09-.42,0-.84-.06-1.25-.11-.93-.03-1.86-.05-2.78-.02-.92,0-1.85,0-2.78v-2.79c0-.93,0-1.85,0-2.78,0-.93-.02-1.86.01-2.79.01-.35,0-.72.06-1.07.04-.27,0-.53.05-.79.06-.32.01-.64.06-.96.04-.22,0-.44.06-.64.05-.22,0-.46.06-.66.07-.22.01-.44.09-.66.07-.18.05-.38.07-.57.02-.14.06-.28.09-.42.02-.1.05-.2.07-.3.03-.13.04-.27.07-.41.03-.13.06-.27.1-.4,0-.04.01-.08.02-.12.03-.16.07-.33.1-.49,0-.02.01-.05.01-.07,0-.21.04-.42.11-.62,0-.02,0-.04,0-.05.02-.19.02-.39.06-.57.06-.23.06-.46.12-.69.06-.2.05-.41.11-.62.03-.13.06-.25.1-.38.03-.1.06-.21.08-.31.03-.14.04-.28.06-.43.01-.06.04-.11.05-.17.04-.19.08-.38.12-.58.02-.09.03-.18.06-.26.11-.26.08-.56.22-.81-.01-.24.11-.44.17-.66.06-.21.08-.42.13-.63.01-.07.04-.14.06-.21.04-.15.07-.3.11-.45.01-.05.04-.1.06-.15.08-.23.15-.45.23-.68,0,0,0-.01,0-.02-.03-.27.16-.5.18-.77,0-.01,0-.03.01-.03.15-.15.13-.36.22-.53.07-.12.11-.26.16-.38.07-.16.13-.32.2-.48,0-.02.02-.04.04-.06.08-.08.12-.18.15-.29.03-.1.12-.18.17-.28.17-.34.4-.65.65-.95.11-.13.24-.26.36-.39.13-.14.26-.29.41-.42.11-.09.23-.17.35-.25.03-.02.06-.03.07-.06.03-.1.12-.14.2-.19.15-.09.29-.18.42-.28.1-.07.15-.17.25-.24.32-.2.63-.41.95-.61.4-.26.78-.53,1.19-.77.21-.12.43-.23.65-.34.22-.11.46-.21.7-.3.16-.06.3-.16.48-.18.1-.01.18-.08.27-.12.48-.18.96-.34,1.43-.54.21-.09.43-.17.64-.26.28-.12.57-.23.86-.32.27-.09.54-.15.81-.22.29-.07.59-.12.88-.18.05-.01.1-.04.15-.05.15-.04.31-.07.46-.11.15-.04.3-.08.44-.11.28-.07.55-.14.83-.22.18-.05.35-.11.53-.15.21-.05.43-.08.64-.12.27-.06.54-.08.82-.11.28-.03.56-.1.85-.15.16-.03.32-.04.48-.06.06,0,.12-.03.18-.05.3-.07.59-.14.89-.22.24-.06.47-.15.72-.2.22-.05.45-.08.68-.12.19-.03.39-.08.58-.1.17-.02.35.01.53-.01.81-.1,1.62-.04,2.43-.05.81-.01,1.63.04,2.44-.02.84-.06,1.68-.02,2.51-.04.84-.01,1.68,0,2.52,0s1.67,0,2.5,0c.84,0,1.68-.01,2.52,0,.34,0,.69.07,1.02.18.15.05.31.09.45.16.12.05.23.13.34.2.03.02.06.05.1.06.19.04.29.18.43.27.19.13.39.26.58.39.03.02.07.04.09.07.2.25.5.39.76.57.15.1.31.19.47.29.05.03.1.06.15.08.09.04.18.08.27.13.1.05.21.09.31.14.1.05.2.11.3.16.13.06.27.11.39.19.24.14.46.3.7.45.2.13.4.25.59.37.09.06.17.13.27.17.2.09.39.22.59.3.4.16.73.42,1.1.63.19.11.36.25.54.37.14.09.29.18.43.27.28.19.6.35.84.57.21.19.44.37.57.62.08.17.15.34.29.48-.02.15.11.25.17.37.08.19.14.38.22.57.11.29.23.57.32.87.11.37.23.74.36,1.11.04.11.02.23.06.35.06.18.07.37.13.56.07.22.07.45.12.67.06.25.1.49.12.74,0,.13.06.25.09.38,0,.02.01.05.02.07.02.18.03.36.07.53.02.13.07.26.1.4.02.09.04.19.06.28.02.14.04.27.07.41.03.13.07.27.1.4,0,.04,0,.07.02.11.04.17.07.34.11.51.02.11.07.21.06.32-.01.3.13.57.13.87,0,.17.07.35.1.52,0,0,0,.01,0,.02.02.23.04.45.06.68.02.2.04.39.05.59,0,.19-.03.4,0,.58.11.49.05.98.05,1.47,0,2.59,0,5.17,0,7.76,0,.27.04.54.05.81,0,.27-.04.54.01.8.11.59.05,1.17.05,1.76,0,3.63,0,7.27,0,10.9,0,.19-.09.34-.16.49-.08.15-.11.3-.14.46-.03.16-.07.33-.1.49-.01.06.09.83.09.89,0,.47,0,.94,0,1.4-.09.09-.2.1-.32.1-2.84,0-5.67,0-8.51,0-.17,0-.32-.03-.4-.2-.02-.03-.07-.06-.1-.08-.12-.06-.17-.14-.17-.28,0-2.68.24-8.92.42-8.92v-.27c0-.19,0-.39,0-.58,0-.21.03-.4.11-.6,0-.02.01-.05,0-.07-.04-.21.09-.4.13-.59.01-.06.04-.13.04-.19,0-.22.03-.44,0-.66-.11-.83-.04-1.66-.05-2.49-.01-.83,0-1.67,0-2.5,0-.83,0-1.67,0-2.5,0-.14-.04-.27-.06-.41-.02-.14.03-.28-.05-.41,0,0,0-.01,0-.02-.02-.19-.01-.39-.07-.57-.06-.18,0-.37-.1-.55-.04-.08-.04-.17-.06-.26-.03-.15-.05-.31-.08-.46-.02-.14-.03-.28-.07-.41-.05-.17-.09-.33-.11-.51,0-.08-.04-.16-.06-.24-.06-.22-.11-.44-.17-.66,0-.02,0-.05,0-.07,0-.19-.05-.38-.1-.56,0-.03-.01-.06-.01-.09,0-.2-.05-.39-.11-.58,0-.01,0-.02,0-.04-.02-.2-.03-.39-.07-.59-.02-.13-.07-.27-.1-.4,0-.03-.02-.06-.02-.09,0-.18-.05-.35-.11-.53-.03-.11-.04-.22-.07-.33-.02-.08-.04-.15-.05-.22-.02-.11-.04-.22-.06-.33-.02-.08-.04-.15-.06-.22-.12-.34-.25-.69-.37-1.03-.05-.15-.1-.29-.15-.44-.05-.13-.1-.26-.15-.39-.07-.17-.14-.33-.21-.5-.02-.05-.09-.09-.11-.15-.08-.27-.26-.48-.43-.69-.13-.15-.27-.29-.43-.4-.22-.16-.46-.3-.7-.45-.23-.15-.47-.3-.7-.45-.02-.01-.05-.03-.06-.05-.11-.19-.3-.26-.5-.33-.15-.06-.29-.16-.42-.25-.12-.08-.25-.14-.38-.2-.18-.08-.35-.21-.52-.31-.11-.06-.21-.14-.35-.18-.12-.03-.22-.12-.33-.18-.24-.15-.48-.31-.71-.46-.13-.08-.27-.17-.4-.25-.05-.03-.11-.05-.17-.08-.01,0-.03,0-.04-.01-.25-.18-.55-.28-.82-.43-.05-.03-.11-.07-.17-.09-.21-.05-.35-.2-.53-.29-.08-.04-.15-.1-.22-.15-.14-.11-.28-.23-.42-.33-.18-.13-.37-.26-.56-.39-.02-.01-.04-.02-.05-.03-.15-.25-.46-.33-.68-.49-.12-.09-.28-.13-.42-.2-.07-.04-.14-.04-.22-.01-.13.04-.28.05-.41.08-.12.03-.24.07-.37.11-.28.08-.56.15-.85.22-.26.06-.52.11-.79.16-.19.04-.37.08-.56.1-.2.03-.4.04-.59.06-.15.02-.29.04-.44.07-.16.03-.32.06-.49.1-.07.01-.14.03-.2.05-.43.12-.87.25-1.3.37-.27.07-.55.12-.82.18-.19.04-.38.1-.57.14-.12.03-.24.04-.36.07-.3.08-.6.16-.9.24-.16.04-.32.09-.48.14-.14.04-.28.09-.42.14-.18.06-.38.11-.53.21-.14.09-.32.06-.43.19-.25.03-.44.17-.67.24-.24.07-.46.17-.7.26-.3.11-.58.26-.88.36-.23.08-.44.22-.66.32-.13.06-.27.11-.39.19-.38.24-.77.45-1.16.68-.08.05-.14.13-.22.19-.26.18-.53.34-.78.53-.14.11-.31.17-.4.33-.04.07-.13.11-.21.16-.11.07-.22.14-.33.22-.03.02-.06.04-.07.06-.1.18-.33.24-.43.42-.03.05-.1.07-.15.12-.36.34-.65.72-.92,1.12-.16.24-.3.48-.4.75-.02.05-.08.1-.11.15-.06.12-.12.24-.17.36-.13.33-.26.66-.38.99-.06.18-.11.37-.16.55-.04.13-.1.26-.14.39-.04.13-.06.25-.1.38-.01.05-.03.1-.05.15-.06.19-.15.37-.17.57-.02.22-.15.42-.14.65,0,.13-.09.26-.13.39-.06.2-.08.41-.16.61-.03.07-.04.15-.06.23-.04.2-.08.41-.12.61-.01.06-.04.11-.06.17-.04.19-.06.38-.12.56-.06.19-.04.4-.14.59-.05.09-.06.21-.08.31-.02.13-.04.26-.06.39-.03.18-.08.35-.11.52-.03.16-.04.33-.07.5-.03.18-.07.35-.1.53,0,.02-.01.05-.02.07-.02.18-.03.36-.06.54-.05.27-.12.54-.17.8-.05.23-.08.46-.12.69-.03.13-.08.26-.11.4-.03.13-.04.26-.06.39-.04.2-.07.4-.11.6,0,0,0,.01,0,.02-.02.21-.02.42-.07.62-.05.22-.01.44-.06.65-.05.21-.01.41-.06.61-.06.27,0,.55-.06.81-.06.27-.02.54-.05.81-.02.17-.02.33,0,.49.02.1,0,.21,0,.31,0,.11,0,.22.05.34.04.08.01.19.01.29,0,.3.1.6.06.9.11.21.04.43.06.64.02.18.04.36.05.54,0,.18-.02.37,0,.55.02.16.09.31.13.46.02.07.04.15.04.23,0,1.69,0,3.38,0,5.08,0,.97,0,1.95,0,2.92,0,.07,0,.13,0,.22Z"/><path class="cls-1" d="m42.84,59.41c0-3,.34-9.01.34-9.2,0-.07,0-.14,0-.21,0-.22,0-.44.1-.64.03-.05.02-.13.01-.19-.01-.34.02-.68.11-1.01.01-.05,0-.1,0-.16-.02-.24.04-.47.11-.7.02-.06,0-.12.01-.17.02-.23,0-.46.05-.69.04-.21.07-.45-.04-.67,0-.01,0-.03,0-.04-.02-.26-.04-.51-.06-.77,0-.1.02-.21-.05-.3,0,0,0-.02,0-.04-.02-.23-.03-.46-.06-.69-.02-.15-.05-.3-.08-.45-.01-.06-.02-.12-.03-.19-.03-.17-.05-.34-.08-.51-.03-.18-.06-.36-.1-.54-.03-.16-.06-.32-.1-.49,0-.04-.02-.08-.02-.11,0-.21-.05-.42-.11-.62-.04-.13-.04-.28-.07-.42-.04-.21-.09-.41-.13-.62-.03-.18-.13-.34-.19-.51-.07-.21-.2-.4-.32-.58-.14-.21-.29-.43-.45-.62-.07-.08-.16-.16-.23-.25-.06-.07-.1-.15-.17-.21-.1-.09-.22-.17-.33-.26-.03-.02-.06-.03-.08-.05-.1-.09-.19-.08-.3-.02-.34.19-.69.37-1,.6-.12.09-.27.16-.4.24-.24.15-.48.31-.71.46-.29.2-.59.39-.88.6-.18.13-.36.27-.54.41-.15.12-.3.26-.45.39-.14.12-.28.24-.41.36-.04.03-.06.08-.1.12-.06.07-.11.15-.18.2-.06.05-.11.1-.16.16-.15.22-.31.43-.46.64-.02.03-.03.06-.04.09-.06.16-.16.3-.25.45-.09.14-.14.3-.2.46-.03.06-.06.11-.08.17-.02.04-.03.08-.04.13,0,.03,0,.07-.02.09-.15.26-.21.56-.28.84-.07.27-.15.54-.22.81-.03.12-.04.24-.06.36-.02.08-.04.16-.06.24-.04.22-.12.43-.12.66,0,.04-.02.07-.03.11,0,.11-.02.22-.01.32,0,.08.04.16.04.25,0,.25,0,.51,0,.76,0,.19-.04.38.05.55.02.04,0,.1,0,.15,0,.75,0,1.5,0,2.25,0,.17.04.34.06.52,0,.02.17,6.09.17,8.88v.26c-.09,0-.18.01-.26.01-1.98,0-3.96,0-5.94,0-.85,0-1.71,0-2.56,0-.24,0-.38-.13-.39-.38,0-.12,0-.23,0-.35,0-.13.02-.26-.05-.38-.02-.04,0-.1,0-.15,0-.7.03-1.41-.01-2.11-.04-.56-.04-1.11-.05-1.67-.11-.35-.02-.72-.06-1.08-.11-.89.02-1.78-.06-2.67-.08-.84-.03-1.67-.05-2.51-.02-.84,0-1.68,0-2.52v-5.06c0-.84,0-1.68,0-2.52,0-.11,0-.22.04-.34.04-.13,0-.28.02-.43.02-.3.04-.6.15-.89.04-.11.07-.23.08-.35.03-.27.11-.54.17-.8.05-.21.08-.43.13-.64.04-.16.11-.32.14-.48.04-.23.22-.4.22-.64,0-.03.04-.06.06-.1.04-.08.08-.16.12-.24.02-.04.03-.09.05-.12.15-.26.24-.55.44-.78.05-.05.05-.14.1-.2.15-.2.31-.39.46-.58.04-.05.06-.1.09-.15.13-.17.3-.3.45-.45.04-.04.08-.09.13-.13.08-.07.17-.13.26-.2.13-.1.24-.22.38-.32.37-.27.75-.52,1.12-.79.16-.11.32-.23.49-.35.05-.03.1-.07.15-.09.21-.05.36-.2.53-.31.2-.12.37-.29.58-.38.37-.15.66-.44,1.07-.52.11-.02.2-.08.31-.12.14-.04.28-.07.43-.11.29-.08.58-.02.87-.07.29-.05.58-.03.87-.06.28-.03.57-.1.85-.16.29-.06.59-.11.88-.19.21-.06.41-.05.62-.05,3.08,0,6.15,0,9.23,0,.21,0,.43.06.64.1.03,0,.05.01.08.01.19.02.38.04.58.06.05,0,.1.04.14.05.28.06.56.12.84.18.14.03.28.1.42.13.18.04.33.13.5.18.15.04.3.16.42.27.11.1.27.14.32.3,0,.03.07.04.09.06.06.05.11.11.16.16.11.13.17.3.34.38.07.04.11.14.16.21.1.14.2.27.29.41.04.06.06.13.09.19.02.05.03.1.06.14.15.27.22.58.3.88.05.19.11.38.16.57,0,.02.01.04.01.06,0,.24.06.47.11.7.04.17.04.34.06.51.03.16.07.32.1.49,0,.03.02.06.02.09,0,.22.06.43.11.64.04.17.02.35.08.51.08.24,0,.49.1.72,0,0,0,.01,0,.02.02.22.04.44.06.65,0,.11-.02.22.05.32,0,0,0,.03,0,.04.02.26.05.53.05.79,0,5.81,0,11.62,0,17.44,0,.38-.09.74-.06,1.12,0,.13-.06.27-.09.41,0,.02-.02.04-.02.06-.02.25-.03.5-.07.75-.04.28-.05.56-.06.85,0,.14-.07.27-.09.41-.01.06-.02.13-.02.19.01.22-.01.44-.06.65-.02.08-.06.12-.15.13-.05,0-.09,0-.14,0-2.91,0-5.83,0-8.74,0h-.23Z"/></g></svg>